<?xml version="1.0" encoding="UTF-8"?>
<svg id="_レイヤー_1" data-name="レイヤー_1" xmlns="http://www.w3.org/2000/svg" version="1.1" viewBox="0 0 504 124.6">
  <!-- Generator: Adobe Illustrator 29.3.1, SVG Export Plug-In . SVG Version: 2.1.0 Build 151)  -->
  <defs>
    <style>
      .st0 {
        fill: #231815;
      }
    </style>
  </defs>
  <g>
    <path class="st0" d="M98.1,15.3c7.3,0,13.2,1.2,17.5,3.9,4,2.6,6.8,6.8,6.8,12.8,0,13.1-12.9,18.4-22.8,18.4s-2.2,0-2.8-.2l-7.1-1.6v14c0,7.6.7,7.7,10.2,8.6v2.5h-28.6v-2.5c8.9-.8,9.3-1.3,9.3-8.8V26.7c0-8-1.1-8.2-9.3-8.9v-2.5h26.7ZM89.7,45.4c1.2.5,4,1.2,7.6,1.2,6.9,0,15.5-3.1,15.5-14.4s-7.5-13.9-16.1-13.9-5.2.4-5.8,1.1c-.8.6-1.1,1.7-1.1,4.1v21.9Z"/>
    <path class="st0" d="M149.5,33.2c12.9,0,22.6,8.5,22.6,20.2s-12.4,21.5-22.6,21.5-23-10-23-20.1c0-14.7,13.1-21.6,23-21.6ZM148.3,36.3c-6.3,0-12,5.3-12,15.7s5.8,19.7,14.3,19.7,11.8-4,11.8-16.4-5-19.1-14.1-19.1Z"/>
    <path class="st0" d="M202.6,73.8h-23.8v-2.5c6.5-.5,7.1-1,7.1-6.8v-18.7c0-5.9-.4-6.2-6.4-6.8v-2.2c5.1-.7,9.7-1.8,14.6-3.7v9.9c3.6-4.7,8-9.6,13.1-9.6s6,2.1,6,4.3-1.7,4-3.5,4.9c-1,.5-1.9.5-2.7-.2-1.6-1.4-2.8-2.2-4.7-2.2s-6,2.8-8.3,7.4v16.9c0,5.9.5,6.4,8.5,6.9v2.5Z"/>
    <path class="st0" d="M239.7,73.7c-1.8.8-3.4,1.2-4.5,1.2-6.6,0-10.1-3.5-10.1-10.7v-26.2h-7.1l-.4-1.1,2.8-2.6h4.8v-7.6c2-1.8,5-4.1,6.9-5.9l1.6.2c-.2,3.8-.3,9-.3,13.3h11.8c.9.9.6,2.9-.6,3.7h-11.2v23c0,7.3,3.3,8.6,6,8.6s4.9-.8,6.3-1.4l.9,2.3-6.8,3.1Z"/>
    <path class="st0" d="M256.7,34.3v-2.4c0-6.5,2.6-13.1,9.1-18,3.6-2.8,7.6-4.3,11.6-4.8,3.5,0,6.7,1.2,8.4,2.9.9,1,1.1,1.9.6,3.1-.3.9-1.4,2.2-2.5,2.9-1.1.6-2,.5-3-.2-2.1-1.6-5-3.7-8.4-3.7-7.7,0-7.7,9.1-7.7,15.9v4.2h11c.6.8.1,3.1-1,3.7h-9.9v26c0,6.5,1.1,6.6,8.9,7.3v2.5h-24.3v-2.5c6.5-.5,7.2-.9,7.2-6.8v-26.5h-7.3l-.4-1,2.3-2.7h5.5Z"/>
    <path class="st0" d="M302.8,33.2c12.9,0,22.6,8.5,22.6,20.2s-12.4,21.5-22.6,21.5-23-10-23-20.1c0-14.7,13.1-21.6,23-21.6ZM301.6,36.3c-6.3,0-12,5.3-12,15.7s5.8,19.7,14.3,19.7,11.8-4,11.8-16.4-5-19.1-14.1-19.1Z"/>
    <path class="st0" d="M331.2,73.8v-2.5c6.6-.5,7.5-1,7.5-6.9V21.2c0-5.5-.5-6-7.1-6.8v-2.3c5.6-.5,12-2,15.3-3.1v55.3c0,5.9.6,6.4,7.3,6.9v2.5h-23Z"/>
    <path class="st0" d="M359.5,73.8v-2.5c6.5-.5,7.2-1,7.2-7.1v-18.5c0-5.6-.3-5.9-6.5-6.8v-2.2c5.4-.8,10.2-2,14.7-3.6v31.1c0,6.1.7,6.6,7.5,7.1v2.5h-22.9ZM370.3,24.2c-2.9,0-5.5-2.2-5.5-4.8s2.6-4.9,5.6-4.9,5.3,2.1,5.3,4.9-2.4,4.8-5.4,4.8Z"/>
    <path class="st0" d="M410.8,33.2c12.9,0,22.6,8.5,22.6,20.2s-12.4,21.5-22.6,21.5-23-10-23-20.1c0-14.7,13.1-21.6,23-21.6ZM409.5,36.3c-6.3,0-12,5.3-12,15.7s5.8,19.7,14.3,19.7,11.8-4,11.8-16.4-5-19.1-14.1-19.1Z"/>
  </g>
  <g>
    <path class="st0" d="M145.5,118.8c-.2,0-.6,0-1.1,0-4.6-.2-5.9-1.2-7-2.7-1.4-2-2.5-4.2-3.7-6.3-.5-1-1-1.2-2.2-1.2h-.7s0,5.2,0,5.2c0,2.9.4,3.2,3.1,3.5v1.3h-11v-1.3c2.7-.3,3.1-.6,3.1-3.5v-13.8c0-2.8-.4-3.2-3.1-3.5v-1.3h10.4c3.2,0,5,.4,6.5,1.4,1.4,1,2.4,2.6,2.4,4.8,0,3.2-2.1,4.9-4.5,5.8.5,1.1,1.9,3.4,3,5.1,1.3,2,2.1,3,2.7,3.7.8.9,1.2,1.2,2.3,1.6l-.3,1.2ZM131.8,107c1.5,0,2.7-.3,3.5-.9,1.2-1,1.7-2.4,1.7-4.2,0-3.8-2.2-5.2-4.2-5.2s-1.4.1-1.7.4c-.3.2-.3.6-.3,1.4v8.6h1Z"/>
    <path class="st0" d="M147,118.6v-1.2c1.9-.3,2.2-.4,2.2-3v-7c0-2.4-.2-2.6-1.9-2.8v-1.2c2.3-.3,4.5-.7,6.5-1.3v12.3c0,2.4.1,2.7,2.2,3v1.2h-9ZM151.2,99.9c-1.4,0-2.6-1.2-2.6-2.6s1.2-2.6,2.6-2.6,2.6,1.1,2.6,2.6-1.2,2.6-2.6,2.6Z"/>
    <path class="st0" d="M176.5,118.6c-2.8,0-5.3,0-6.6,0-.1-.2-4.5-6.9-4.6-7.2-.3-.4-.5-.6-.7-.6-.1,0-.3,0-.3,0v3.9c0,2.3.2,2.4,2.1,2.7v1.2h-8.9v-1.2c1.9-.3,2.1-.4,2.1-2.7v-16.4c0-1.9-.2-2.1-2.1-2.6v-1.1c2.3-.2,4.6-.6,6.7-1.2v16.4c.8-.2,1.4-.8,2-1.4.9-.9,2.2-2.5,2.6-3.2.4-.8-.1-1.2-1.5-1.4v-1.2l7.7-.3v1.2c-2.2.4-3.4.8-4.6,2.2-.6.6-1.4,1.5-2.4,2.7.9,1.4,4.3,6,5.3,7.2,1.2,1.3,1.6,1.6,3.1,1.8v1.2Z"/>
    <path class="st0" d="M194.6,117.7c-2.2.3-4.5.8-6.8,1.3v-2.4c-1.5,1.2-3,2.4-5,2.4-3,0-4.7-1.9-4.7-5.1v-7.5c0-1.7-.2-1.8-1.2-2.1l-.8-.2v-1.2c1.8,0,4.7-.3,6.7-.6,0,1.5-.1,3.4-.1,5.4v5.3c0,2.3,1.2,3.1,2.4,3.1s1.8-.2,2.6-1v-8.7c0-1.7-.2-1.9-1.2-2.1l-1.1-.2v-1.2c2.1,0,5.1-.3,6.9-.6v11.7c0,1.9.2,2.3,1.4,2.4h.8v1.3Z"/>
    <path class="st0" d="M213,103.8c-1.7.3-2.1.6-3,2.6-.9,1.9-1.9,4.6-4,9.6-2.4,5.8-3.1,8.2-3.8,10.3-.3.8-.7,1-1.3,1-1.4,0-2.8-1-2.8-2.3s.2-.9,1-1.3c1.4-.8,2.4-1.5,3-2.6.4-.6.8-1.6.9-2,.1-.5,0-.8-.1-1.4-1.9-5.2-4.2-10.1-4.8-11.6-.6-1.5-1.1-1.9-2.8-2.2v-1.2h9v1.2c-1.5.3-1.8.5-1.4,1.6l2.8,7.6c.8-2,2.1-5.3,2.7-7.3.4-1.2-.1-1.6-1.9-1.9v-1.2h6.6v1.2Z"/>
    <path class="st0" d="M225.4,119c-1,0-1.8-.3-2.2-.8-.5-.4-.8-.9-.9-1.3-1.4.9-3.1,2.1-3.8,2.1-3.1,0-4.9-2.4-4.9-4.6s.9-2.8,2.8-3.5c2.1-.8,5-1.7,5.8-2.4v-1.6c0-1.9-.7-2.9-2.2-2.9s-1.1.3-1.4.7c-.4.6-.6,1.3-.9,2.4-.3,1-.8,1.2-1.5,1.2s-2.1-.9-2.1-1.9.4-1.1,1.3-1.7c1.6-1.1,3.7-2.1,5.8-2.6,1.4,0,2.7.3,3.7,1,1.5,1.1,2,2.6,2,4.4v6.2c0,1.7.6,2.2,1.2,2.2s.7-.1,1.1-.3l.4,1.2-3.9,2.1ZM222.1,109.9c-.6.4-1.3.7-2,1.1-1.1.6-1.8,1.2-1.8,2.4,0,2,1.4,2.7,2.2,2.7s1,0,1.6-.6v-5.7Z"/>
    <path class="st0" d="M257.7,118.6v-1.3c2.7-.3,2.9-.5,2.9-3.8v-14c-2.6,6.2-5.5,13-8.1,19.1h-1.2c-2.3-5.9-4.9-12.6-7.5-18.9-.5,11.3-.5,13.5-.5,14.8,0,1.9.8,2.4,3.5,2.7v1.3h-8.9v-1.3c2.1-.2,3-.6,3.3-2.7.1-1.1.3-3.1,1.1-15,.1-1.7-.1-2.7-3.2-3v-1.3h7.8l6.9,15.9,7-15.9h7.6v1.3c-2.9.3-3.2.6-3.1,3.5l.3,13.5c0,3.2.2,3.4,3.1,3.8v1.3h-10.9Z"/>
    <path class="st0" d="M270.2,118.6v-1.2c1.9-.3,2.2-.4,2.2-3v-7c0-2.4-.2-2.6-1.9-2.8v-1.2c2.3-.3,4.5-.7,6.5-1.3v12.3c0,2.4.1,2.7,2.2,3v1.2h-9ZM274.4,99.9c-1.4,0-2.6-1.2-2.6-2.6s1.2-2.6,2.6-2.6,2.6,1.1,2.6,2.6-1.2,2.6-2.6,2.6Z"/>
    <path class="st0" d="M295.3,115.1c-1.7,2.4-4.1,3.9-6.3,3.9-5,0-7.9-3.7-7.9-7.7s1.4-5.2,3.7-6.9c2.4-1.8,4.6-2.2,6.3-2.2s2.5.4,3.2.9c.5.4.7.8.7,1.3,0,1-1,2-1.6,2s-.5-.1-.8-.4c-1.5-1.3-2.8-1.9-3.7-1.9-1.4,0-3.1,1.4-3.1,5.3s3.5,6.3,5,6.3,2.6-.4,3.9-1.5l.7.9Z"/>
    <path class="st0" d="M306.4,118.6v-1.2c1.6-.3,1.7-.5,1.7-2.4v-6.3c0-2.8-1.2-3.7-2.6-3.7s-1.8.3-2.6,1v9c0,1.9.2,2.2,1.8,2.4v1.2h-8.6v-1.2c1.8-.2,2.1-.3,2.1-2.6v-16.7c0-1.7-.2-2.1-2.2-2.4v-1.2c2.6-.2,5.1-.7,6.9-1.2v11.2c1.3-1.2,3-2.3,4.9-2.3,3.1,0,5,2.1,5,6v6.6c0,2.3.3,2.3,2,2.6v1.2h-8.4Z"/>
    <path class="st0" d="M316.6,118.6v-1.2c1.9-.3,2.2-.4,2.2-3v-7c0-2.4-.2-2.6-1.9-2.8v-1.2c2.3-.3,4.5-.7,6.5-1.3v12.3c0,2.4.1,2.7,2.2,3v1.2h-9ZM320.8,99.9c-1.4,0-2.6-1.2-2.6-2.6s1.2-2.6,2.6-2.6,2.6,1.1,2.6,2.6-1.2,2.6-2.6,2.6Z"/>
    <path class="st0" d="M336.2,102.2c5.1,0,8.3,3.8,8.3,8.1s-4.2,8.7-8.4,8.7-8.5-4.1-8.5-8.3,4.5-8.5,8.7-8.5ZM335.8,103.6c-1.5,0-3.1,1.6-3.1,6s1.5,7.9,3.7,7.9,2.8-.9,2.8-6.2-1.3-7.7-3.5-7.7Z"/>
    <path class="st0" d="M365.6,118.6c-2.8,0-5.3,0-6.6,0-.1-.2-4.5-6.9-4.6-7.2-.3-.4-.5-.6-.7-.6-.1,0-.3,0-.3,0v3.9c0,2.3.2,2.4,2.1,2.7v1.2h-8.9v-1.2c1.9-.3,2.1-.4,2.1-2.7v-16.4c0-1.9-.2-2.1-2.1-2.6v-1.1c2.3-.2,4.6-.6,6.7-1.2v16.4c.8-.2,1.4-.8,2-1.4.9-.9,2.2-2.5,2.6-3.2.4-.8-.1-1.2-1.5-1.4v-1.2l7.7-.3v1.2c-2.2.4-3.4.8-4.6,2.2-.6.6-1.4,1.5-2.4,2.7.9,1.4,4.3,6,5.3,7.2,1.2,1.3,1.6,1.6,3.1,1.8v1.2Z"/>
    <path class="st0" d="M378.6,119c-1,0-1.8-.3-2.2-.8-.5-.4-.8-.9-.9-1.3-1.4.9-3.1,2.1-3.8,2.1-3.1,0-4.9-2.4-4.9-4.6s.9-2.8,2.8-3.5c2.1-.8,5-1.7,5.8-2.4v-1.6c0-1.9-.7-2.9-2.2-2.9s-1.1.3-1.4.7c-.4.6-.6,1.3-.9,2.4-.3,1-.8,1.2-1.5,1.2s-2.1-.9-2.1-1.9.4-1.1,1.3-1.7c1.6-1.1,3.7-2.1,5.8-2.6,1.4,0,2.7.3,3.7,1,1.5,1.1,2,2.6,2,4.4v6.2c0,1.7.6,2.2,1.2,2.2s.7-.1,1.1-.3l.4,1.2-3.9,2.1ZM375.3,109.9c-.6.4-1.3.7-2,1.1-1.1.6-1.8,1.2-1.8,2.4,0,2,1.4,2.7,2.2,2.7s1,0,1.6-.6v-5.7Z"/>
  </g>
</svg>