<?xml version="1.0" encoding="UTF-8"?>
<svg id="_レイヤー_1" xmlns="http://www.w3.org/2000/svg" version="1.1" viewBox="0 0 504 124.6">
  <!-- Generator: Adobe Illustrator 29.3.1, SVG Export Plug-In . SVG Version: 2.1.0 Build 151)  -->
  <defs>
    <style>
      .st0 {
        fill: #231815;
      }
    </style>
  </defs>
  <g>
    <path class="st0" d="M144.7,118.8h-1.1c-4.6-.2-5.9-1.2-7-2.7-1.4-2-2.5-4.2-3.7-6.3-.5-1-1-1.2-2.2-1.2h-.7v5.2c0,2.9.4,3.2,3.1,3.5v1.3h-11v-1.3c2.7-.3,3.1-.6,3.1-3.5v-13.8c0-2.8-.4-3.2-3.1-3.5v-1.3h10.4c3.2,0,5,.4,6.5,1.4,1.4,1,2.4,2.6,2.4,4.8,0,3.2-2.1,4.9-4.5,5.8.5,1.1,1.9,3.4,3,5.1,1.3,2,2.1,3,2.7,3.7.8.9,1.2,1.2,2.3,1.6l-.3,1.2h.1ZM131,107c1.5,0,2.7-.3,3.5-.9,1.2-1,1.7-2.4,1.7-4.2,0-3.8-2.2-5.2-4.2-5.2s-1.4,0-1.7.4c-.3.2-.3.6-.3,1.4v8.6h1Z"/>
    <path class="st0" d="M146.2,118.6v-1.2c1.9-.3,2.2-.4,2.2-3v-7c0-2.4-.2-2.6-1.9-2.8v-1.2c2.3-.3,4.5-.7,6.5-1.3v12.3c0,2.4.1,2.7,2.2,3v1.2h-9ZM150.3,99.9c-1.4,0-2.6-1.2-2.6-2.6s1.2-2.6,2.6-2.6,2.6,1.1,2.6,2.6-1.2,2.6-2.6,2.6Z"/>
    <path class="st0" d="M175.7,118.6h-6.6c-.1-.2-4.5-6.9-4.6-7.2-.3-.4-.5-.6-.7-.6h-.3v3.9c0,2.3.2,2.4,2.1,2.7v1.2h-8.9v-1.2c1.9-.3,2.1-.4,2.1-2.7v-16.4c0-1.9-.2-2.1-2.1-2.6v-1.1c2.3-.2,4.6-.6,6.7-1.2v16.4c.8-.2,1.4-.8,2-1.4.9-.9,2.2-2.5,2.6-3.2.4-.8-.1-1.2-1.5-1.4v-1.2l7.7-.3v1.2c-2.2.4-3.4.8-4.6,2.2-.6.6-1.4,1.5-2.4,2.7.9,1.4,4.3,6,5.3,7.2,1.2,1.3,1.6,1.6,3.1,1.8v1.2h0Z"/>
    <path class="st0" d="M193.8,117.7c-2.2.3-4.5.8-6.8,1.3v-2.4c-1.5,1.2-3,2.4-5,2.4-3,0-4.7-1.9-4.7-5.1v-7.5c0-1.7-.2-1.8-1.2-2.1l-.8-.2v-1.2c1.8,0,4.7-.3,6.7-.6,0,1.5-.1,3.4-.1,5.4v5.3c0,2.3,1.2,3.1,2.4,3.1s1.8-.2,2.6-1v-8.7c0-1.7-.2-1.9-1.2-2.1l-1.1-.2v-1.2c2.1,0,5.1-.3,6.9-.6v11.7c0,1.9.2,2.3,1.4,2.4h.8v1.3h.1Z"/>
    <path class="st0" d="M212.2,103.8c-1.7.3-2.1.6-3,2.6-.9,1.9-1.9,4.6-4,9.6-2.4,5.8-3.1,8.2-3.8,10.3-.3.8-.7,1-1.3,1-1.4,0-2.8-1-2.8-2.3s.2-.9,1-1.3c1.4-.8,2.4-1.5,3-2.6.4-.6.8-1.6.9-2,.1-.5,0-.8-.1-1.4-1.9-5.2-4.2-10.1-4.8-11.6s-1.1-1.9-2.8-2.2v-1.2h9v1.2c-1.5.3-1.8.5-1.4,1.6l2.8,7.6c.8-2,2.1-5.3,2.7-7.3.4-1.2-.1-1.6-1.9-1.9v-1.2h6.6v1.2h0Z"/>
    <path class="st0" d="M224.5,119c-1,0-1.8-.3-2.2-.8-.5-.4-.8-.9-.9-1.3-1.4.9-3.1,2.1-3.8,2.1-3.1,0-4.9-2.4-4.9-4.6s.9-2.8,2.8-3.5c2.1-.8,5-1.7,5.8-2.4v-1.6c0-1.9-.7-2.9-2.2-2.9s-1.1.3-1.4.7c-.4.6-.6,1.3-.9,2.4-.3,1-.8,1.2-1.5,1.2s-2.1-.9-2.1-1.9.4-1.1,1.3-1.7c1.6-1.1,3.7-2.1,5.8-2.6,1.4,0,2.7.3,3.7,1,1.5,1.1,2,2.6,2,4.4v6.2c0,1.7.6,2.2,1.2,2.2s.7,0,1.1-.3l.4,1.2-3.9,2.1h-.3ZM221.3,109.9c-.6.4-1.3.7-2,1.1-1.1.6-1.8,1.2-1.8,2.4,0,2,1.4,2.7,2.2,2.7s1,0,1.6-.6v-5.7h0Z"/>
    <path class="st0" d="M256.9,118.6v-1.3c2.7-.3,2.9-.5,2.9-3.8v-14c-2.6,6.2-5.5,13-8.1,19.1h-1.2c-2.3-5.9-4.9-12.6-7.5-18.9-.5,11.3-.5,13.5-.5,14.8,0,1.9.8,2.4,3.5,2.7v1.3h-8.9v-1.3c2.1-.2,3-.6,3.3-2.7.1-1.1.3-3.1,1.1-15,.1-1.7-.1-2.7-3.2-3v-1.3h7.8l6.9,15.9,7-15.9h7.6v1.3c-2.9.3-3.2.6-3.1,3.5l.3,13.5c0,3.2.2,3.4,3.1,3.8v1.3h-11Z"/>
    <path class="st0" d="M269.4,118.6v-1.2c1.9-.3,2.2-.4,2.2-3v-7c0-2.4-.2-2.6-1.9-2.8v-1.2c2.3-.3,4.5-.7,6.5-1.3v12.3c0,2.4.1,2.7,2.2,3v1.2h-9ZM273.5,99.9c-1.4,0-2.6-1.2-2.6-2.6s1.2-2.6,2.6-2.6,2.6,1.1,2.6,2.6-1.2,2.6-2.6,2.6Z"/>
    <path class="st0" d="M294.4,115.1c-1.7,2.4-4.1,3.9-6.3,3.9-5,0-7.9-3.7-7.9-7.7s1.4-5.2,3.7-6.9c2.4-1.8,4.6-2.2,6.3-2.2s2.5.4,3.2.9c.5.4.7.8.7,1.3,0,1-1,2-1.6,2s-.5,0-.8-.4c-1.5-1.3-2.8-1.9-3.7-1.9-1.4,0-3.1,1.4-3.1,5.3s3.5,6.3,5,6.3,2.6-.4,3.9-1.5l.7.9h-.1Z"/>
    <path class="st0" d="M305.5,118.6v-1.2c1.6-.3,1.7-.5,1.7-2.4v-6.3c0-2.8-1.2-3.7-2.6-3.7s-1.8.3-2.6,1v9c0,1.9.2,2.2,1.8,2.4v1.2h-8.6v-1.2c1.8-.2,2.1-.3,2.1-2.6v-16.7c0-1.7-.2-2.1-2.2-2.4v-1.2c2.6-.2,5.1-.7,6.9-1.2v11.2c1.3-1.2,3-2.3,4.9-2.3,3.1,0,5,2.1,5,6v6.6c0,2.3.3,2.3,2,2.6v1.2h-8.4,0Z"/>
    <path class="st0" d="M315.8,118.6v-1.2c1.9-.3,2.2-.4,2.2-3v-7c0-2.4-.2-2.6-1.9-2.8v-1.2c2.3-.3,4.5-.7,6.5-1.3v12.3c0,2.4.1,2.7,2.2,3v1.2h-9ZM319.9,99.9c-1.4,0-2.6-1.2-2.6-2.6s1.2-2.6,2.6-2.6,2.6,1.1,2.6,2.6-1.2,2.6-2.6,2.6Z"/>
    <path class="st0" d="M335.4,102.2c5.1,0,8.3,3.8,8.3,8.1s-4.2,8.7-8.4,8.7-8.5-4.1-8.5-8.3,4.5-8.5,8.7-8.5h-.1ZM334.9,103.6c-1.5,0-3.1,1.6-3.1,6s1.5,7.9,3.7,7.9,2.8-.9,2.8-6.2-1.3-7.7-3.5-7.7h.1Z"/>
    <path class="st0" d="M364.8,118.6h-6.6c-.1-.2-4.5-6.9-4.6-7.2-.3-.4-.5-.6-.7-.6h-.3v3.9c0,2.3.2,2.4,2.1,2.7v1.2h-8.9v-1.2c1.9-.3,2.1-.4,2.1-2.7v-16.4c0-1.9-.2-2.1-2.1-2.6v-1.1c2.3-.2,4.6-.6,6.7-1.2v16.4c.8-.2,1.4-.8,2-1.4.9-.9,2.2-2.5,2.6-3.2.4-.8-.1-1.2-1.5-1.4v-1.2l7.7-.3v1.2c-2.2.4-3.4.8-4.6,2.2-.6.6-1.4,1.5-2.4,2.7.9,1.4,4.3,6,5.3,7.2,1.2,1.3,1.6,1.6,3.1,1.8v1.2h0Z"/>
    <path class="st0" d="M377.8,119c-1,0-1.8-.3-2.2-.8-.5-.4-.8-.9-.9-1.3-1.4.9-3.1,2.1-3.8,2.1-3.1,0-4.9-2.4-4.9-4.6s.9-2.8,2.8-3.5c2.1-.8,5-1.7,5.8-2.4v-1.6c0-1.9-.7-2.9-2.2-2.9s-1.1.3-1.4.7c-.4.6-.6,1.3-.9,2.4-.3,1-.8,1.2-1.5,1.2s-2.1-.9-2.1-1.9.4-1.1,1.3-1.7c1.6-1.1,3.7-2.1,5.8-2.6,1.4,0,2.7.3,3.7,1,1.5,1.1,2,2.6,2,4.4v6.2c0,1.7.6,2.2,1.2,2.2s.7,0,1.1-.3l.4,1.2-3.9,2.1h-.3ZM374.4,109.9c-.6.4-1.3.7-2,1.1-1.1.6-1.8,1.2-1.8,2.4,0,2,1.4,2.7,2.2,2.7s1,0,1.6-.6v-5.7h0Z"/>
  </g>
  <g>
    <path d="M110.7,16.6c6.7,0,12.2,1.2,16.1,4.1,3.7,2.8,6.3,7.2,6.3,13.5,0,13.9-11.9,19.5-20.9,19.5s-2,0-2.6-.2l-6.6-1.7v14.8c0,8,.7,8.2,9.4,9.1v2.7h-26.2v-2.7c8.2-.9,8.6-1.4,8.6-9.3V28.7c0-8.5-1-8.6-8.6-9.4v-2.7h24.5ZM103,48.5c1.1.6,3.7,1.2,6.9,1.2,6.4,0,14.2-3.2,14.2-15.2s-6.8-14.6-14.8-14.6-4.8.5-5.3,1.1c-.8.7-1,1.8-1,4.4v23.1Z"/>
    <path d="M158,35.6c11.9,0,20.7,9,20.7,21.3s-11.4,22.7-20.7,22.7-21.1-10.5-21.1-21.2c0-15.5,12.1-22.8,21.1-22.8ZM156.8,38.8c-5.8,0-11,5.6-11,16.6s5.3,20.8,13.1,20.8,10.8-4.3,10.8-17.3-4.6-20.1-12.9-20.1Z"/>
    <path d="M206.7,78.4h-21.9v-2.7c6-.6,6.6-1,6.6-7.2v-19.8c0-6.3-.4-6.6-5.9-7.2v-2.4c4.7-.8,8.9-1.9,13.4-3.9v10.5c3.3-4.9,7.3-10.2,12.1-10.2s5.5,2.2,5.5,4.6-1.5,4.3-3.2,5.2c-1,.6-1.7.5-2.5-.2-1.4-1.4-2.6-2.4-4.3-2.4s-5.5,2.9-7.6,7.8v17.9c0,6.3.5,6.7,7.8,7.3v2.7Z"/>
    <path d="M240.7,78.3c-1.6.9-3.1,1.2-4.1,1.2-6.1,0-9.3-3.7-9.3-11.3v-27.6h-6.6l-.4-1.1,2.6-2.8h4.4v-8c1.8-1.9,4.6-4.4,6.4-6.3l1.4.2c-.2,4-.3,9.5-.3,14.1h10.8c.9,1,.6,3-.6,3.9h-10.3v24.3c0,7.7,3,9.1,5.5,9.1s4.5-.9,5.8-1.5l.9,2.5-6.3,3.3Z"/>
    <path d="M256.3,36.7v-2.6c0-6.8,2.4-13.9,8.4-19,3.3-2.9,6.9-4.6,10.6-5,3.2,0,6.2,1.2,7.7,3,.9,1,1,2,.6,3.3-.3,1-1.3,2.3-2.3,3-1,.7-1.8.5-2.8-.2-1.9-1.7-4.6-3.9-7.7-3.9-7,0-7,9.6-7,16.8v4.5h10.1c.6.9,0,3.2-1,3.9h-9.1v27.5c0,6.8,1,6.9,8.2,7.7v2.7h-22.3v-2.7c6-.6,6.7-1,6.7-7.1v-28h-6.7l-.4-1,2.1-2.9h5Z"/>
    <path d="M298.6,35.6c11.9,0,20.7,9,20.7,21.3s-11.4,22.7-20.7,22.7-21.1-10.5-21.1-21.2c0-15.5,12.1-22.8,21.1-22.8ZM297.5,38.8c-5.8,0-11,5.6-11,16.6s5.3,20.8,13.1,20.8,10.8-4.3,10.8-17.3-4.6-20.1-12.9-20.1Z"/>
    <path d="M324.7,78.4v-2.7c6.1-.6,6.8-1,6.8-7.3V22.9c0-5.8-.5-6.4-6.6-7.1v-2.5c5.1-.6,11-2.1,14.1-3.2v58.3c0,6.3.6,6.7,6.7,7.3v2.7h-21.1Z"/>
    <path d="M350.7,78.4v-2.7c6-.6,6.7-1,6.7-7.5v-19.6c0-5.9-.3-6.3-6-7.2v-2.3c4.9-.9,9.4-2.1,13.5-3.8v32.9c0,6.5.7,6.9,6.8,7.5v2.7h-21ZM360.6,26.1c-2.7,0-5-2.4-5-5s2.4-5.2,5.1-5.2,4.8,2.2,4.8,5.2-2.2,5-4.9,5Z"/>
    <path d="M397.7,35.6c11.9,0,20.7,9,20.7,21.3s-11.4,22.7-20.7,22.7-21.1-10.5-21.1-21.2c0-15.5,12.1-22.8,21.1-22.8ZM396.6,38.8c-5.8,0-11,5.6-11,16.6s5.3,20.8,13.1,20.8,10.8-4.3,10.8-17.3-4.6-20.1-12.9-20.1Z"/>
  </g>
</svg>